<svg width="53" height="32" viewBox="0 0 53 32" fill="none" xmlns="http://www.w3.org/2000/svg">
<path fill-rule="evenodd" clip-rule="evenodd" d="M44.2358 20.8251C43.2644 20.8251 42.476 20.052 42.476 19.0977V4.52629C42.476 3.94499 41.9766 3.4548 41.3836 3.4548H35.4132C34.4418 3.4548 33.6534 2.68176 33.6534 1.7274C33.6534 0.773035 34.4418 0 35.4132 0H41.3836C43.9273 0 45.9964 2.03106 45.9964 4.52629V19.0977C45.9964 20.052 45.208 20.8251 44.2358 20.8251ZM38.3369 20.8094H30.1109C26.8566 20.8094 24.2095 18.2109 24.2095 15.0173V3.76011C24.2095 3.59179 24.0707 3.45558 23.8992 3.45558H22.0555C21.2627 3.45558 21.0471 3.54581 20.5715 4.50451L20.5649 4.51709L20.5583 4.52967L13.0995 18.9319C12.5524 20.0867 11.4148 20.805 10.1925 20.7721C8.96215 20.7374 7.90595 19.9791 7.42602 18.7896L0.1475 2.41966C-0.241395 1.54511 0.165177 0.527416 1.0561 0.145671C1.94702 -0.236075 2.98466 0.163023 3.37356 1.03757L10.3233 16.6683L17.4144 2.97666C18.1489 1.5026 19.2776 0.000781245 22.0555 0.000781245H23.8992C26.0116 0.000781245 27.7298 1.6874 27.7298 3.76097V15.0181C27.7298 16.3065 28.7975 17.3554 30.1109 17.3554H38.3369C39.3092 17.3554 40.0967 18.1293 40.0967 19.0828C40.0967 20.0363 39.3083 20.8102 38.3369 20.8102V20.8094ZM18.3257 24.9671C18.2152 24.9671 18.1339 25.0565 18.1339 25.1554V31.7128C18.1339 31.8117 18.2152 31.901 18.3257 31.901H19.5268C19.6276 31.901 19.7186 31.8117 19.7186 31.7128V29.1872H20.4151L21.7568 31.8117C21.7771 31.8516 21.8381 31.901 21.9185 31.901H23.2602C23.4317 31.901 23.5024 31.7423 23.4317 31.6138L22.0493 29.0978C22.927 28.7508 23.543 28.0176 23.543 27.1067C23.543 25.9276 22.554 24.9671 21.3431 24.9671H18.3257ZM21.9786 27.137C21.9786 27.5526 21.626 27.9291 21.2123 27.9291H19.7186V26.3839H21.2123C21.6251 26.3839 21.9786 26.7214 21.9786 27.137ZM24.8962 25.1554C24.8962 25.0565 24.9872 24.9671 25.088 24.9671H26.2989C26.3996 24.9671 26.4907 25.0565 26.4907 25.1554V31.7128C26.4907 31.8117 26.4005 31.901 26.2989 31.901H25.088C24.9872 31.901 24.8962 31.8117 24.8962 31.7128V25.1554ZM34.9668 28.4437C34.9668 26.4621 33.352 24.8674 31.3342 24.8674C29.3154 24.8674 27.7112 26.4621 27.7112 28.4437C27.7112 30.4253 29.3163 32 31.3342 32C33.352 32 34.9668 30.4253 34.9668 28.4437ZM33.352 28.4437C33.352 29.523 32.4443 30.4149 31.3342 30.4149C30.2346 30.4149 29.326 29.5334 29.326 28.4437C29.326 27.354 30.224 26.4525 31.3342 26.4525C32.4443 26.4525 33.352 27.3644 33.352 28.4437ZM7.79013 24.8672C8.79949 24.8672 9.54635 25.1744 10.2322 25.7886C10.3233 25.8676 10.3233 25.9864 10.2428 26.0663L9.45531 26.8688C9.3846 26.9382 9.27412 26.9382 9.20341 26.8688C8.83043 26.5417 8.33547 26.3639 7.8414 26.3639C6.70123 26.3639 5.86334 27.2948 5.86334 28.4045C5.86334 29.5141 6.71095 30.4156 7.85112 30.4156C8.32575 30.4156 8.84015 30.2472 9.20341 29.9401C9.27412 29.8811 9.40493 29.8811 9.46592 29.9497L10.2525 30.7721C10.3233 30.8416 10.3135 30.97 10.2428 31.0394C9.55695 31.6935 8.68901 31.9998 7.79102 31.9998C5.7723 31.9998 4.14778 30.4251 4.14778 28.4435C4.14778 26.4619 5.7723 24.8672 7.79102 24.8672H7.79013ZM13.703 24.9767L10.545 31.6433L10.5442 31.6442C10.4832 31.7726 10.5645 31.9019 10.7156 31.9019H11.8257C12.0273 31.9019 12.1386 31.783 12.189 31.6641L12.5523 30.8712H15.2966L15.6599 31.6537C15.7509 31.8411 15.8322 31.901 16.0134 31.901H17.1333C17.2844 31.901 17.3657 31.7717 17.3047 31.6433L14.1467 24.9767C14.1167 24.9168 14.046 24.8673 13.9753 24.8673H13.8745C13.8038 24.8673 13.7331 24.9177 13.703 24.9767ZM13.9249 27.8892L14.6921 29.5238H13.1586L13.9152 27.8892H13.9249ZM39.3171 24.8673C40.3264 24.8673 41.0733 25.1745 41.7591 25.7887C41.8502 25.8677 41.8502 25.9865 41.7697 26.0664L40.9831 26.8689C40.9124 26.9383 40.801 26.9383 40.7303 26.8689C40.3565 26.5418 39.8624 26.364 39.3674 26.364C38.2273 26.364 37.3894 27.2949 37.3894 28.4046C37.3894 29.5142 38.237 30.4157 39.3772 30.4157C39.8518 30.4157 40.3662 30.2473 40.7295 29.9402C40.8002 29.8812 40.931 29.8812 40.992 29.9498L41.7786 30.7722C41.8493 30.8417 41.8396 30.9701 41.7689 31.0395C41.0821 31.6936 40.215 31.9999 39.3171 31.9999C37.2983 31.9999 35.6738 30.4252 35.6738 28.4436C35.6738 26.462 37.2983 24.8673 39.3171 24.8673ZM45.2301 24.9767L42.0721 31.6433L42.0703 31.6442C42.0093 31.7726 42.0906 31.9019 42.2418 31.9019H43.3519C43.5534 31.9019 43.6648 31.783 43.7152 31.6641L44.0784 30.8712H46.8228L47.186 31.6537C47.2771 31.8411 47.3584 31.901 47.5396 31.901H48.6603C48.8114 31.901 48.8928 31.7717 48.8318 31.6433L45.6738 24.9767C45.6437 24.9168 45.573 24.8673 45.5023 24.8673H45.4015C45.3308 24.8673 45.2601 24.9177 45.2301 24.9767ZM45.4519 27.8892L46.2191 29.5238H46.2182H44.6847L45.4413 27.8892H45.4519ZM51.2403 0H43.9759C45.2813 0.722713 46.2447 1.97293 46.5629 3.4548H51.2403C52.2116 3.4548 53 2.68176 53 1.7274C53 0.773035 52.2125 0 51.2403 0Z" fill="#1D1D1D"/>
</svg>
